# xmcd
#
# Track frame offsets: 
#        150
#        10389
#        24284
#        36328
#        47675
#        62641
#        74972
#        87609
#        98306
#        111036
#        124935
#        135619
#        149473
#        162678
#        174896
#        187854
#
# Disc length: 2678 seconds
#
# Revision: 0
# Processed by: cddbd v1.5.2PL0 Copyright (c) Steve Scherf et al.
# Submitted via: ExactAudioCopy v0.95b3
#
DISCID=df0a7410
DTITLE=Sonny Terry - Doggin' My Heart Around
DYEAR=2003
DGENRE=Blues
TTITLE0=Dangerous Woman
TTITLE1=News For You Baby
TTITLE2=Wine Headed Woman
TTITLE3=Harmonica And Washboard Breakdown
TTITLE4=Bad Luck Blues
TTITLE5=I Don't Worry
TTITLE6=Airplane Blues
TTITLE7=Stranger Blues
TTITLE8=Screamin' And Cryin' The Blues
TTITLE9=Man Ain't Nothin' But A Fool
TTITLE10=I Love You Baby
TTITLE11=Four O'clock Blues
TTITLE12=Lonesome Blues
TTITLE13=Whoopin' The Blues
TTITLE14=Doggin' My Heart Around
TTITLE15=Harmonica Train
EXTD=
EXTT0=
EXTT1=
EXTT2=
EXTT3=
EXTT4=
EXTT5=
EXTT6=
EXTT7=
EXTT8=
EXTT9=
EXTT10=
EXTT11=
EXTT12=
EXTT13=
EXTT14=
EXTT15=
PLAYORDER=
